<svg xmlns="http://www.w3.org/2000/svg" viewBox="0 0 105.2 108.5"><title>MLB Network logo</title><path d="M105.2 56.2L52 108.5 0 56.2V0h105.2v56.2z" fill="#c12026"/><path d="M103.2 55.9L52 106.1 2 55.9V1.8h101.2v54.1z" fill="#fff"/><path d="M100.5 55.2l-48.4 47.6L4.7 55.2V4h95.8v51.2z" fill="#171548"/><path d="M69.3 82.7L51.9 99.8l-17-17.1h34.4z" fill="#fff"/><path d="M66.2 83.9L52.1 97.8 38.3 83.9h27.9z" fill="#c12026"/><path d="M41.8 34h-11V20l-5.5 10.5L19.8 20v14h-11V7.9h11l5.5 10.5 5.5-10.5h11V34zm25.9 0H43.9V8H55v20.5h12.7V34zm29.4-6.9c0 4.6-2.4 6.9-7.2 6.9h-20V7.9h20c3.9 0 6.2 1.4 7 4.1.2.6.2 1.3.2 2.1 0 4.1-1.8 6.2-5.3 6.2 2.6 0 4.3 1.3 5 3.8.2.8.3 1.9.3 3zm-11-1.8c0-.4 0-.8-.1-1.1-.4-1.4-1.5-2.1-3.5-2.1h-1.6v6.4h1.6c2.4-.1 3.6-1.1 3.6-3.2zm0-9.3c0-.3 0-.5-.1-.7-.3-1.2-1.5-1.8-3.5-1.8h-1.6v4.9h1.6c2.4.1 3.6-.8 3.6-2.4zM19.3 43.9h-3.1l-3.4-3.3c-.4-.4-.9-.9-1.3-1.5.2.5.3.9.3 1.2v3.6H8.6v-7.4h3.6l2.9 2.7c.6.5 1 1 1.3 1.4-.2-.6-.3-1.3-.3-1.9v-2.2h3.1v7.4h.1zm11.6-1.8v1.8h-9.5v-7.4h9.5v1.7h-5.7v1.1h4.6v1.6h-4.6v1.2h5.7zm7.9-3.8v5.6h-3.7v-5.6h-2.6v-1.8h8.9v1.8h-2.6zm20.6-1.8l-3.3 7.4h-3.2l-1.8-4.1-1.7 4.1H46l-3.3-7.4h3.6l1.8 4.3 1.7-4.3h3l1.9 4.3 1.8-4.3h2.9zm6.4 7.5c-1.8 0-3.2-.3-4.3-1s-1.7-1.6-1.7-2.8c0-1.1.5-2 1.6-2.7s2.5-1.1 4.4-1.1c1.7 0 3.2.3 4.3 1 1.1.7 1.7 1.6 1.7 2.7 0 1.2-.6 2.1-1.7 2.8-1.1.8-2.6 1.1-4.3 1.1zm0-1.7c.7 0 1.1-.2 1.4-.5s.4-.9.4-1.8c0-1.3-.6-1.9-1.8-1.9-1.3 0-1.9.7-1.9 2.2 0 1.3.6 2 1.9 2zm18.8 1.6h-4.3l-1.8-2.8h-1.2v2.8h-3.9v-7.4H80c1.4 0 2.6.2 3.4.6.8.4 1.2.9 1.2 1.6 0 .4-.1.8-.4 1.1s-.9.6-1.8.9l2.2 3.2zm-7.4-4.4h1.6c.5 0 .9-.1 1.2-.2.3-.1.4-.3.4-.5 0-.5-.5-.7-1.5-.7h-1.8v1.4h.1zm20.5 4.4h-4.2l-2.2-2.8-1.3 1.1v1.7h-3.6v-7.4H90v3.1l3.5-3.1H97l-3.2 2.7 3.9 4.7zM33.3 79.8l-1.2-1-1.6-2.1L28.7 50l20.9-3v-.8h5.9l22.2 3.2.4 24.6-6.9 6.9H36.3l-3-1.1z" fill="#fff"/><path d="M100.5 55.1v-9H55.4l9.7 16.3.9.1.5.7v.8l.6.1.6.8v.7l.6.1.6.7v1.5s1.4 1.3 2.6 1.7c.8.3 1 1.7 1.4 2.4.7 1 1.6 1.5 1.4 2.1-.4 1.6-2.1 4.2-3.6 4.4h-6v2.4l9.4.1 26.4-25.9z" fill="#c12026"/><path d="M49.6 46.1h-23l-.2 29.1 4.8 5.7h5.2c-.6-1-1.3-2.2-1.5-2.5H32c0-7.2 2.5-11.3 5.4-12 .4-.1.2-2.1-.3-2.7h-1.7c-.4-.1-.1-.5-.1-.5l1.4-3-.2-.8h-5.1c-.1 0 4.2-2.9 4.2-2.9.2-7.7 8.1-8.3 12.8-5.1 2.8 1.9 3 5.6 2.8 8.2 0 .1-.7 0-.7 0s-.5 2.8.8 2.8h5.5c2.2-.1 4.4 1.4 4.4 1.4l.6-1.9-12.2-15.8zm33 35.9v.5h-.7v2.2h-.6v-2.2h-.7V82h2zm1.4 2.7l-.7-2.2v2.2h-.5V82h1l.5 1.6.5-1.6h1v2.7h-.6v-2.2l-.7 2.2H84z" fill="#171648"/></svg>
