<svg width="56" height="56" viewBox="0 0 56 56" fill="none" xmlns="http://www.w3.org/2000/svg">
<path d="M51.4883 14.4603C48.6756 11.3057 44.3554 9.56526 39.3516 9.56526C36.1195 9.56526 32.8872 10.3267 30.2299 11.6942C26.547 13.6056 24.014 16.9466 22.5378 19.4641C23.983 18.1121 26.143 16.5737 29.0955 15.7967C30.1988 15.5014 31.3333 15.346 32.4677 15.346C37.6113 15.346 41.1699 18.3763 41.3253 18.5006L41.7759 18.8891L41.9468 19.0289L41.8691 19.2465L41.6671 19.8059C41.5428 20.1478 41.2321 21.3133 42.4442 21.795C42.6151 21.8572 42.7549 21.8883 42.9103 21.8883C43.6252 21.8883 44.2778 21.0957 44.5885 20.614C45.1481 19.7904 46.1893 18.2364 48.0228 18.2364C48.4112 18.2364 48.7999 18.3141 49.1728 18.454C50.2606 18.858 50.8976 19.6971 51.0843 21.018C51.3018 22.5565 50.7267 23.7219 50.3694 24.2658C50.6024 24.3435 50.8821 24.3901 51.162 24.3901C51.8767 24.3901 52.5761 24.1104 53.0422 23.6132C53.2131 23.5044 56.4454 20.0079 51.4883 14.4603ZM53.695 23.3801C53.6328 23.4889 53.5551 23.5665 53.4927 23.6598C53.5551 23.5821 53.6173 23.4889 53.695 23.3801ZM39.3672 8.36871C44.713 8.36871 49.3437 10.249 52.3896 13.6522C55.1401 16.7291 55.6528 19.4019 55.4664 21.0957C55.3265 22.4787 54.7048 23.7219 53.8659 24.4989C53.0888 25.2293 52.1563 25.4624 51.4106 25.5556C51.3329 25.5712 51.2397 25.5712 51.1465 25.5712C50.6335 25.5712 49.9499 25.4313 49.499 25.1361C49.064 24.8563 48.7689 24.5145 48.7689 24.5145C49.1262 24.1881 49.3282 23.9084 49.499 23.6132C49.9499 22.8206 49.3748 21.795 48.4737 21.795H48.4578C47.5878 21.795 47.3548 22.37 47.2616 22.8051C46.7486 25.1361 45.785 25.8975 45.0082 26.5035C44.8373 26.6434 44.6662 26.7677 44.5108 26.9076C43.5631 27.8089 42.5219 29.0676 42.8481 30.8857C43.019 31.8647 43.532 32.362 44.0136 32.6106C44.169 32.0046 44.4953 31.4762 44.9306 31.0878C44.4953 30.5594 44.5263 29.8912 44.8063 29.4872C45.2257 28.8811 45.8472 28.8656 46.1427 28.8656C47.1059 28.8656 47.6655 29.5649 47.8519 29.9689L48.085 30.4817C49.0174 30.7769 49.7166 31.4762 50.0742 32.5019C50.9911 35.1436 48.7378 36.7442 47.4014 37.2259C47.4014 37.2259 44.4331 38.2671 42.2267 38.2671C41.9778 38.2671 41.7292 38.2515 41.4962 38.2205C42.0866 38.7798 42.5685 39.3083 42.9258 39.7744C42.988 39.6811 43.0656 39.5879 43.1433 39.4947C43.7184 38.8422 44.7597 38.4069 45.8006 38.4069C46.5932 38.4069 47.3237 38.6399 47.9296 39.0908C48.6135 39.5879 49.064 40.3495 49.2039 41.235C49.3437 42.183 49.1106 43.1776 48.5358 43.9547C47.6655 45.1358 45.8627 45.8815 43.9204 45.8815C43.1123 45.8815 42.351 45.7417 41.6516 45.4776C41.6516 45.4776 39.9734 44.8403 38.5282 44.2344C37.0672 43.6282 35.2958 43.2553 33.0581 42.4627C29.7794 41.2972 27.1686 41.0642 25.5369 41.0642C24.7289 41.0642 24.1228 41.1263 23.7809 41.1729C24.2316 41.6237 24.589 41.9811 24.8377 42.2297L25.1329 42.5248C25.2417 42.5093 25.3505 42.4938 25.4592 42.4938C25.8633 42.4938 26.2518 42.6183 26.5625 42.8514C27.5105 43.5816 27.4949 45.1668 26.5004 46.4566C25.8477 47.2956 24.9775 47.793 24.1383 47.793C23.7343 47.793 23.3458 47.6687 23.035 47.4354C22.6621 47.1558 22.429 46.7207 22.3513 46.2233L22.0249 46.0679L15.9645 43.2553L15.4983 43.5505C15.1098 43.7991 14.6747 44.1256 14.224 44.4674C12.6701 45.6329 10.7431 47.0625 8.44324 47.0625C8.11692 47.0625 7.77504 47.0315 7.44869 46.9693C4.2786 46.3945 3.53269 43.7059 3.59486 42.3695C3.59486 42.3695 3.56379 40.7224 3.92118 39.6811C4.13875 39.0286 4.62048 38.5312 5.19546 38.2671C5.19546 38.2671 4.71373 37.9719 4.09214 37.7544C3.19084 37.4434 2.35168 37.4744 2.00981 37.3035C1.04635 36.8219 0.626777 36.3091 0.45584 35.3767C0.284904 34.4132 0.48692 33.2322 1.03081 31.9735C1.46592 30.9634 2.11859 29.9223 2.81788 29.0831C4.79141 26.7522 6.42308 25.711 8.07028 25.711C8.31892 25.711 8.56756 25.7421 8.81619 25.7887C9.40671 25.8975 9.87291 26.2549 10.1682 26.7833C10.3546 27.1251 10.4634 27.5292 10.51 27.9332C10.5877 28.0109 14.0065 31.4141 14.0065 31.4141L15.9645 28.2906C16.2908 27.0319 16.9745 25.8353 18.0002 24.7786L19.1657 23.5665L20.2068 21.2977C21.2635 19.0289 24.2937 13.4347 29.6551 10.653C32.5143 9.17677 35.9486 8.36871 39.3672 8.36871ZM39.3672 7.93359C35.8865 7.93359 32.3745 8.7572 29.4839 10.249C23.9985 13.0928 20.9061 18.7803 19.8339 21.0957L18.8238 23.2868L17.7049 24.4368C16.6482 25.5245 15.9334 26.7522 15.576 28.0731L13.9443 30.6837C13.1362 29.8756 11.3958 28.1508 10.9451 27.7001C10.883 27.265 10.7587 26.892 10.5722 26.5502C10.1992 25.8975 9.63981 25.4624 8.92497 25.3225C8.64527 25.2759 8.36556 25.2448 8.10139 25.2448C6.29876 25.2448 4.57387 26.3326 2.50708 28.7723C1.77671 29.627 1.10851 30.7148 0.657856 31.7715C0.0828878 33.1234 -0.119129 34.3822 0.0673479 35.4233C0.253825 36.4956 0.766635 37.1171 1.85441 37.6767C2.07197 37.7854 2.35168 37.8321 2.7091 37.8787C3.08206 37.9253 3.53269 37.9874 3.98335 38.1583C4.12321 38.2049 4.24753 38.2671 4.37185 38.3137C3.99889 38.6399 3.71918 39.0597 3.54823 39.5413C3.19084 40.6136 3.19084 42.1986 3.19084 42.3695C3.12866 43.846 3.93675 46.7674 7.40209 47.4043C7.7595 47.4665 8.11692 47.4976 8.47434 47.4976C10.9141 47.4976 12.9187 46.0058 14.5193 44.8092C14.9699 44.483 15.3895 44.1567 15.7625 43.9237L16.0266 43.7525L21.8696 46.4566L21.9939 46.5188C22.1182 47.0315 22.3979 47.4665 22.7864 47.762C23.1749 48.0571 23.6411 48.2125 24.1539 48.2125C25.1174 48.2125 26.143 47.6532 26.8578 46.7052C27.9922 45.229 27.9766 43.3796 26.8267 42.4938C26.4382 42.1986 25.972 42.0432 25.4592 42.0432C25.3971 42.0432 25.3505 42.0432 25.2883 42.0432L25.1484 41.9034L24.8221 41.5771L24.7444 41.4995C24.9775 41.4839 25.2417 41.4839 25.5369 41.4839C27.122 41.4839 29.6861 41.717 32.9027 42.8669C33.9594 43.2398 34.9074 43.5194 35.7619 43.768C36.741 44.0635 37.5958 44.3121 38.357 44.6228C39.8025 45.229 41.4807 45.866 41.4962 45.8815C42.2422 46.1612 43.0656 46.3165 43.9204 46.3165C45.9873 46.3165 47.9296 45.4931 48.8776 44.2033C49.5146 43.333 49.7945 42.2296 49.6389 41.1574C49.4835 40.1631 48.9708 39.2927 48.1937 38.7332C47.65 38.3292 47.0127 38.0806 46.3446 38.003C47.0282 37.8165 47.4946 37.6456 47.5412 37.6301C47.883 37.5055 49.0796 37.0239 49.9188 35.9361C50.7422 34.895 50.9287 33.6518 50.4781 32.3465C50.1052 31.2742 49.3748 30.4817 48.4112 30.1087L48.2559 29.7669C48.0228 29.2696 47.3237 28.4149 46.1427 28.4149C45.8317 28.4149 45.0082 28.4149 44.4486 29.223C44.1535 29.6581 44.0292 30.3574 44.3865 31.01C44.1535 31.2742 43.9515 31.5695 43.8117 31.8958C43.5476 31.6161 43.3764 31.2587 43.2987 30.7925C43.019 29.1919 43.9049 28.0886 44.8373 27.2184C44.9616 27.094 45.1325 26.9697 45.2879 26.8454C46.0805 26.2238 47.1681 25.3847 47.7121 22.8983C47.8053 22.4788 47.9607 22.2457 48.4892 22.2457H48.5047C48.7689 22.2457 49.0174 22.3855 49.1573 22.6342C49.2971 22.8828 49.2971 23.178 49.1728 23.4267C49.0485 23.6442 48.8776 23.9084 48.5358 24.2192L48.2093 24.4989L48.4892 24.8252C48.5047 24.8408 48.831 25.2293 49.3282 25.5245C49.9033 25.8975 50.7112 26.0218 51.2086 26.0218C51.3174 26.0218 51.4261 26.0218 51.5349 26.0063C52.6538 25.8664 53.5396 25.4934 54.2387 24.8408C55.1712 23.9706 55.8237 22.5875 55.9635 21.1579C56.1192 19.7438 55.9014 16.8534 52.778 13.3725C49.5767 9.86052 44.8373 7.93359 39.3672 7.93359ZM8.33448 40.3029C8.33448 40.3029 8.00814 40.1786 7.72843 40.1786C7.55748 40.1786 7.40209 40.2252 7.33994 40.365C7.2933 40.4582 7.27777 40.5825 7.38655 40.7068C7.41762 40.7379 7.46426 40.7845 7.54194 40.8311C7.74397 40.9399 7.96153 41.002 8.1946 41.002C8.59866 41.002 9.00268 40.8156 9.28239 40.4893C9.40671 40.3495 9.51549 40.1941 9.60874 40.0854L8.13246 39.3704C8.25678 39.7433 8.33448 40.3029 8.33448 40.3029Z" fill="#3A8DDE"/>
<path d="M9.49794 32.8287L10.3216 31.9274L8.03723 29.814L7.18254 30.9173L7.81966 31.4612L5.64411 34.507L6.68526 35.2218L8.89189 32.347L9.49794 32.8287ZM24.0587 46.0995C24.1053 46.3639 24.2451 46.5659 24.2918 46.597C24.2918 46.597 24.2762 46.3329 24.3384 46.1151C24.6025 46.0374 24.9289 45.8043 25.2241 45.4315C25.5971 44.934 25.6748 44.499 25.6593 44.2815C25.8146 44.0795 25.9856 43.9708 25.9856 43.9708C25.7214 43.9708 25.364 44.1106 25.0843 44.297C24.8823 44.4213 24.6802 44.6078 24.4782 44.8408C24.0276 45.447 24.012 45.9442 24.0587 46.0995ZM12.1552 33.528C12.1552 33.528 10.5391 35.5637 10.0419 35.8123C9.6378 36.0144 9.59119 35.486 9.77768 35.2529C9.91753 35.0664 11.487 32.9686 11.487 32.9686L10.6945 32.2693C10.6945 32.2693 9.09392 34.2273 8.78313 34.6469C8.47233 35.0664 7.91291 36.0765 8.9696 36.8224C10.0107 37.5684 10.9431 36.667 11.0675 36.5116C11.1918 36.3718 12.9478 34.2584 12.9478 34.2584L12.1552 33.528ZM39.9248 24.515C38.5884 25.09 36.5215 27.0635 36.5215 27.0635C36.5836 27.0635 36.6769 27.079 36.9099 27.1257C37.1429 27.1723 37.3452 27.1257 37.3452 27.1257C37.3452 27.1257 37.6715 27.5297 38.5884 27.8094C39.5206 28.0891 40.4996 27.9026 41.1835 27.5297C42.1623 26.9858 42.3645 26.069 42.5354 25.5095C42.7063 24.9501 42.8617 24.6548 42.8617 24.6548C43.1258 24.6859 43.1724 24.7636 43.7165 24.9035C44.1825 25.0278 44.3379 24.8258 44.3379 24.8258C43.0326 23.5671 41.199 23.9711 39.9248 24.515ZM41.3233 26.271C41.3233 26.271 39.5672 25.4318 38.7437 27.079C38.7437 27.079 38.5573 27.1101 38.4175 27.0635C38.2774 27.0169 38.1997 26.9858 38.1686 27.0013C38.1686 27.0013 38.7127 25.6494 41.4476 24.9346C41.4476 24.9346 41.8049 25.5717 41.3233 26.271ZM37.1743 30.1404C37.1743 30.1404 36.8633 28.1047 33.8176 27.2344C30.7717 26.3642 28.3787 26.9547 27.3841 28.1979C26.1565 29.7363 27.3841 31.4301 29.2955 31.3369C30.7561 31.2748 31.7663 30.3735 32.9629 30.1714C34.1905 29.9694 35.2006 30.0626 36.304 30.7153C37.4229 31.368 37.7647 31.6477 37.9356 32.0051C38.1065 32.3625 38.1842 32.6578 38.5884 32.7821C38.5728 32.7821 38.7282 31.368 37.1743 30.1404ZM28.8449 30.2181C28.8449 30.2181 28.3631 30.2802 28.1922 29.8917C28.1922 29.8917 28.2233 29.7052 28.4253 29.5965C28.6584 29.4722 29.0313 29.4255 29.078 29.4255C29.078 29.41 28.9847 29.9228 28.8449 30.2181ZM29.1401 28.9282C28.8449 29.0526 28.6895 29.0526 28.4253 29.1458C28.4253 29.1458 28.3476 28.3378 29.4974 28.229C29.4974 28.229 29.6065 28.7263 29.1401 28.9282ZM30.8338 30.0626C30.3833 30.4978 29.7929 30.5288 29.3421 30.3735C29.3421 30.3735 29.5906 29.5498 29.7618 29.2235C29.7618 29.2235 30.5542 28.9749 31.1604 29.0526C31.1604 29.0526 31.2847 29.6275 30.8338 30.0626ZM30.4299 28.6175C30.2745 28.6175 30.0104 28.633 29.9327 28.6485C29.9327 28.6485 29.7463 27.9959 30.492 27.8405C31.1293 27.7162 31.642 27.9026 31.642 27.9026C31.642 27.9026 31.5488 28.3222 31.3934 28.5553C31.409 28.5553 30.5697 28.6175 30.4299 28.6175ZM33.1182 29.5032C32.9162 29.6275 32.6521 29.7208 32.186 29.7674C31.7197 29.814 31.5643 29.8762 31.5643 29.8762C31.5643 29.8762 31.409 29.3323 31.8595 29.0992C32.3103 28.8506 32.9473 28.9282 33.3826 29.1458C33.3826 29.1458 33.3202 29.3944 33.1182 29.5032ZM33.4603 28.6175C33.1804 28.7263 32.6677 28.6019 32.5589 28.5864C32.4657 28.5708 32.2171 28.5242 32.0615 28.5242C32.0615 28.5242 32.0304 27.9492 32.6055 27.8716C33.1804 27.7938 33.6623 28.1513 33.7089 28.2134C33.7089 28.229 33.74 28.5242 33.4603 28.6175ZM34.5323 29.4722C34.5323 29.4722 34.3303 29.4877 34.2837 29.4722C34.2216 29.4722 34.0817 29.4722 33.9575 29.3944C33.9575 29.3944 33.9575 29.2391 34.206 29.208C34.4391 29.1769 34.5944 29.3167 34.5323 29.4722ZM34.5012 28.835C34.2682 28.7107 34.1284 28.633 34.1284 28.633C34.1284 28.633 34.175 28.4154 34.4235 28.4154C34.6569 28.4154 34.9676 28.6796 35.0297 28.9593C35.0297 28.9749 34.7346 28.9593 34.5012 28.835ZM34.6569 31.3369C32.9629 31.0106 30.7406 31.943 30.7406 31.943C31.409 32.0362 31.7974 32.0673 32.5745 31.9585C33.3513 31.8497 34.0662 31.7254 35.5424 32.6578C37.0342 33.5902 37.8113 33.0929 37.8113 33.0929C36.8788 32.1294 36.4127 31.6788 34.6569 31.3369ZM52.3876 13.6683C49.3417 10.2495 44.7111 8.38477 39.3652 8.38477C35.9467 8.38477 32.5123 9.19283 29.6842 10.6536C24.3073 13.4352 21.2926 19.0139 20.2359 21.2983L19.1947 23.5671L18.0292 24.7791C17.0036 25.8359 16.3199 27.0169 15.9935 28.2911L14.0355 31.4146C14.0355 31.4146 10.6168 28.0114 10.5391 27.9337C10.4925 27.5297 10.3837 27.1412 10.1972 26.7838C9.902 26.2399 9.4358 25.898 8.84528 25.7892C8.59664 25.7426 8.34801 25.7115 8.09937 25.7115C6.43663 25.7115 4.82049 26.7527 2.84696 29.0837C2.14767 29.9073 1.495 30.9639 1.05989 31.9741C0.515999 33.2483 0.313983 34.4293 0.484921 35.3772C0.655859 36.3096 1.07543 36.8224 2.03889 37.304C2.39631 37.4752 3.2199 37.4439 4.12122 37.7549C4.74281 37.9724 5.22452 38.2676 5.22452 38.2676C4.6651 38.5317 4.18337 39.0291 3.95027 39.6817C3.59285 40.7229 3.62395 42.37 3.62395 42.37C3.56178 43.7064 4.29215 46.3795 7.47778 46.9698C7.80413 47.032 8.14601 47.0631 8.47233 47.0631C10.7722 47.0631 12.6991 45.6179 14.2531 44.4679C14.7038 44.1261 15.1233 43.8154 15.5273 43.551L15.9935 43.2558L22.054 46.0685L22.3804 46.2238C22.4581 46.7213 22.6912 47.1407 23.0641 47.4359C23.3749 47.6693 23.7479 47.7935 24.1674 47.7935C25.0066 47.7935 25.8924 47.2961 26.5295 46.4571C27.5085 45.1674 27.5396 43.5976 26.5916 42.8519C26.2808 42.6189 25.9079 42.4946 25.4883 42.4946C25.3795 42.4946 25.2708 42.5101 25.162 42.5256L24.8667 42.2302C24.6181 41.9816 24.2451 41.6087 23.81 41.1734C24.1519 41.1268 24.758 41.0647 25.566 41.0647C27.1821 41.0647 29.8084 41.3135 33.0871 42.4632C35.3249 43.2558 37.0963 43.6287 38.5573 44.2349C40.018 44.8408 41.6807 45.4781 41.6807 45.4781C42.3801 45.7422 43.1413 45.882 43.9495 45.882C45.8763 45.882 47.6946 45.1207 48.5649 43.9552C49.1397 43.1782 49.3883 42.1836 49.2329 41.2358C49.0931 40.35 48.6426 39.5884 47.9587 39.0913C47.3528 38.6404 46.6068 38.4074 45.8297 38.4074C44.7887 38.4074 43.7475 38.8272 43.1724 39.4952C43.0947 39.5884 43.017 39.6817 42.9549 39.7749C42.582 39.3243 42.1157 38.7806 41.5253 38.221C43.732 38.5162 47.4305 37.2264 47.4305 37.2264C48.7513 36.7447 51.0202 35.1441 50.1033 32.5024C49.7459 31.4768 49.0465 30.7775 48.1141 30.4822L47.881 29.9694C47.6946 29.5654 47.135 28.8661 46.1718 28.8661C45.8607 28.8661 45.2548 28.8816 44.8354 29.4877C44.5554 29.8917 44.5399 30.5599 44.9596 31.0883C44.5243 31.4768 44.1825 32.0051 44.0427 32.6112C43.5611 32.3625 43.0481 31.8653 42.8772 30.8863C42.551 29.0681 43.5922 27.8094 44.5399 26.9081C44.6797 26.7682 44.8509 26.6439 45.0373 26.5041C45.8141 25.898 46.7932 25.1366 47.2906 22.8056C47.3839 22.3705 47.6169 21.7955 48.4872 21.7955H48.5028C49.4194 21.8111 49.979 22.8212 49.5281 23.6137C49.3572 23.9089 49.1553 24.2042 48.7979 24.515C48.7979 24.515 49.0931 24.8569 49.5281 25.1366C50.0722 25.4784 50.9267 25.6183 51.4397 25.5561C52.1699 25.4629 53.1178 25.2298 53.8949 24.4994C54.7184 23.7225 55.3401 22.4793 55.4955 21.0962C55.6353 19.418 55.1381 16.7451 52.3876 13.6683ZM16.3043 32.751C16.4131 33.0152 16.5219 33.2638 16.6617 33.4969C16.6462 33.4969 16.6462 33.4969 16.6307 33.5125C16.5374 33.5436 16.4753 33.5746 16.4597 33.5902C16.3976 33.6213 16.3354 33.6368 16.2577 33.6368C16.2111 33.5902 16.18 33.5591 16.1489 33.528C16.0557 33.4348 15.9469 33.326 15.8537 33.2328C15.8537 33.2172 15.8537 33.2017 15.8537 33.1861C15.8692 33.0618 15.9314 32.9375 16.0557 32.8754C16.0713 32.8443 16.1489 32.7976 16.3043 32.751ZM15.7604 30.2336C15.776 30.6532 15.8226 31.0883 15.9158 31.5234C15.9469 31.6632 15.978 31.7876 16.0246 31.9274C15.8226 32.0051 15.6672 32.0828 15.6206 32.0984C15.4341 32.2071 15.2787 32.3625 15.1699 32.5335C14.999 32.3625 14.8281 32.1916 14.6571 32.0207C15.0301 31.3991 15.3875 30.8241 15.7604 30.2336ZM1.33961 35.2063C1.02881 33.4658 2.30307 31.0417 3.49963 29.6275C5.53533 27.2344 7.10483 26.3176 8.67435 26.6128C9.03177 26.6905 9.28041 26.9081 9.4358 27.1878C9.2027 27.1101 8.95406 27.0635 8.65882 27.0635C8.31693 27.0635 7.94398 27.1412 7.55549 27.2966C5.53533 28.058 3.23546 30.6998 2.30307 33.3105C1.88349 34.507 1.86796 35.5171 2.27199 36.3096C2.30307 36.3718 2.33415 36.4184 2.36522 36.465C1.93011 36.3252 1.47946 35.9833 1.33961 35.2063ZM5.95489 38.9515C6.91836 38.8116 7.22915 39.5574 7.22915 39.5574C6.43663 39.6506 6.31231 40.35 6.4677 40.8938C6.7008 41.6553 7.80413 41.9194 7.80413 41.9194C6.76297 42.6499 5.70626 42.4477 5.02252 41.6553C4.22998 40.7384 4.83603 39.1068 5.95489 38.9515ZM8.09937 39.3709L9.57565 40.0859C9.49794 40.1946 9.37362 40.3345 9.24931 40.4898C8.82974 41.0025 8.08384 41.1579 7.50888 40.8316C7.44671 40.785 7.38456 40.7539 7.35346 40.7073C7.26025 40.583 7.27578 40.4588 7.30685 40.3655C7.46224 39.9771 8.3014 40.3034 8.3014 40.3034C8.3014 40.3034 8.23923 39.7438 8.09937 39.3709ZM7.64874 46.1151C4.3854 45.5091 4.50971 42.4166 4.50971 42.4166C6.2346 43.9863 8.0683 43.116 9.4358 41.6398C9.74658 41.3135 10.0263 40.9559 10.2749 40.5986L15.0611 42.8208C13.0876 44.0951 10.6634 46.6746 7.64874 46.1151ZM26.0477 43.5355C26.6072 43.9708 26.5139 45.0275 25.8302 45.9131C25.1464 46.7989 24.1519 47.1563 23.5925 46.7368C23.033 46.3018 23.1263 45.245 23.81 44.3592C24.4782 43.4733 25.4883 43.116 26.0477 43.5355ZM24.2296 42.8364C23.81 43.0694 23.4215 43.3957 23.1107 43.831C22.7689 44.2815 22.5358 44.7787 22.427 45.2761L3.79488 36.636C3.79488 36.636 2.20983 36.1542 3.11114 33.6213C4.01244 31.0883 6.21907 28.7418 7.85074 28.1202C9.26484 27.5919 9.73104 28.3844 10.4148 29.0215C10.8654 29.4411 22.4892 41.0957 24.2296 42.8364ZM19.2724 33.8854C19.2569 33.8543 19.2569 33.8077 19.2414 33.7611C19.2258 33.7145 19.2103 33.6523 19.1947 33.6057C19.1792 33.5746 19.1792 33.5436 19.1792 33.5125C19.1636 33.4348 19.1481 33.3415 19.1326 33.2483C19.1481 33.2638 19.1792 33.2794 19.1947 33.2949C20.3758 34.1962 20.5778 35.5482 19.7231 36.7447C19.6765 36.8224 19.5988 36.869 19.5055 36.9001C19.3346 36.7292 19.1636 36.5583 18.9927 36.3873C19.0083 36.3407 19.0238 36.3096 19.0549 36.2785C19.1636 36.1387 19.288 35.9056 19.3657 35.6414C19.3657 35.6259 19.3812 35.5948 19.3812 35.5637C19.4123 35.4239 19.4278 35.284 19.4123 35.1286C19.4434 34.8178 19.3967 34.4138 19.2724 33.8854ZM19.3501 32.3314C19.7697 32.1605 20.469 32.0362 21.1061 32.6578C21.7432 33.2949 21.1372 34.2273 21.0129 34.4138C20.8264 33.73 20.3913 33.1085 19.7231 32.5956C19.6143 32.5024 19.49 32.4092 19.3501 32.3314ZM43.7941 40.0548C44.4467 39.3088 46.1718 38.8738 47.4149 39.7749C48.5494 40.6141 48.6581 42.3078 47.8344 43.4112C46.8553 44.7321 44.1049 45.4625 41.9758 44.6544C41.9758 44.6544 44.369 44.3903 45.0839 43.5976C45.7986 42.8053 45.4568 41.935 45.0684 41.6864C44.7266 41.4689 44.2602 41.3291 43.2035 41.7796C43.2035 41.7641 43.1413 40.8005 43.7941 40.0548ZM45.55 29.8606C46.6378 29.3789 47.0573 30.3113 47.0573 30.3113C46.2028 30.3735 45.6588 30.5755 45.6588 30.5755C45.3325 30.2647 45.55 29.8606 45.55 29.8606ZM46.5446 31.2126C47.5237 31.0572 48.7358 31.3369 49.2485 32.7821C50.1343 35.2995 47.1039 36.3873 47.1039 36.3873C47.1039 36.3873 47.679 35.5326 47.6635 34.8023C47.6169 33.6834 46.9641 33.901 46.5135 34.4138C46.1873 34.7867 45.4413 34.911 45.0839 34.3516C44.9286 34.1185 44.8664 33.9165 44.8198 33.5591C44.6642 32.3625 45.5811 31.3525 46.5446 31.2126ZM46.4048 22.6191C45.8452 25.1676 44.7577 25.4629 43.9029 26.271C43.1569 26.9858 41.5564 28.6019 41.9914 31.0261C42.2868 32.6423 43.2967 33.2794 43.9495 33.528C43.9495 33.5746 43.9495 33.6213 43.965 33.6834C44.0272 34.1496 44.1359 34.4604 44.3534 34.8178C44.6642 35.3151 45.1927 35.6259 45.7831 35.6103C46.2805 35.5948 46.7466 35.3461 46.7466 35.3461C46.5602 35.8123 46.2805 36.2164 45.8141 36.5272C43.9029 37.8326 40.5928 37.6151 38.6195 36.3252C36.1642 34.7246 34.9521 35.3461 34.9521 35.3461C39.0389 36.667 41.401 39.1379 42.5354 40.6607C42.2402 41.6864 42.5044 42.6499 42.582 42.9762L43.5456 42.5722C43.965 42.4011 44.1049 42.37 44.1981 42.3544C44.2758 42.3544 44.4622 42.3855 44.5554 42.5412C44.6486 42.6965 44.5243 42.9296 44.4156 43.0383C44.0583 43.4112 42.5354 43.9397 40.888 43.7375C39.1943 43.5044 36.8633 42.8674 33.3668 41.6242C27.2287 39.4486 23.2661 40.35 23.2661 40.35C22.5358 39.8526 20.7642 37.9258 20.298 37.4128C20.3602 37.3507 20.4068 37.2885 20.469 37.2264C20.8108 36.7603 21.0129 36.263 21.1061 35.7657L21.7121 34.9732C22.3337 34.1651 22.6135 32.8909 21.7432 32.0362C21.2615 31.57 20.6865 31.3058 20.0494 31.3058C19.8163 31.3058 19.5211 31.3369 19.2103 31.3835C19.9096 27.4675 24.5093 28.5553 24.5093 28.5553C23.5614 27.5763 20.6244 27.2966 19.1015 29.4722C17.6097 31.6011 18.5421 34.3205 18.5421 34.3205C18.5265 34.3205 18.5265 34.305 18.511 34.305V34.3205C17.5164 33.9165 14.7814 29.3478 18.6508 25.3386V25.3541L18.6664 25.3386C22.1317 21.7644 27.6483 23.6758 27.6483 23.6758C25.5194 21.3449 21.3081 22.8212 21.3081 22.8212C21.3081 22.8212 23.8566 18.4545 29.4353 16.9782C35.7755 15.2844 40.5773 19.449 40.5773 19.449C40.2355 20.4125 40.1889 22.2151 42.0535 22.9455C43.8097 23.6292 45.0684 22.1685 45.6277 21.3293C46.1873 20.4902 47.1816 19.0295 48.8135 19.62C50.1965 20.1328 49.9168 21.4537 49.9168 21.4537C49.699 20.9409 46.933 20.1949 46.4048 22.6191ZM53.3043 23.8778C52.341 24.8879 50.7869 24.9656 49.9013 24.4217C49.9013 24.4217 51.0823 23.0853 50.7869 21.0962C50.6781 20.3037 50.3363 19.247 49.0776 18.7808C48.7358 18.6565 48.3782 18.5943 48.0364 18.5943C46.3737 18.5943 45.3947 20.0396 44.882 20.8321C44.4467 21.4692 43.7631 22.2462 42.9238 22.2462C42.7374 22.2462 42.5354 22.1996 42.3335 22.1219C42.0691 22.0131 40.7637 21.4071 41.3699 19.7287L41.5719 19.1693L41.1214 18.7808C40.9815 18.6565 37.5006 15.704 32.4812 15.704C31.3779 15.704 30.2745 15.8438 29.1867 16.1391C24.6802 17.3356 22.0385 20.2882 21.0284 21.6712C21.9919 19.5734 24.9289 14.1034 30.0881 11.4461C36.5526 8.07397 46.4048 8.27599 51.7348 14.2432C56.2415 19.2781 54.2523 22.8833 53.3043 23.8778ZM12.7457 37.6927L14.5173 35.4083L13.5849 34.709L11.1607 37.9724L12.8701 38.9825L13.3673 38.2054L12.7457 37.6927ZM20.0183 43.3024L20.4068 42.8364L19.8629 42.4321L20.0339 42.2457L20.3758 42.4632L20.7798 41.9971L20.4379 41.7485L20.6089 41.531L21.2304 41.9505L21.6189 41.4223L20.3758 40.4898L18.7907 42.5256L20.0183 43.3024ZM16.8638 41.3757L17.4698 40.7073L17.532 41.8573L18.138 42.1991L19.8785 40.0703L19.2258 39.4952L18.7285 39.7904L18.6353 38.9204L18.0137 38.4385L16.0402 40.9093L16.8638 41.3757ZM13.0721 39.0757L13.8957 39.6817L14.5017 39.3088L15.0767 39.7438L14.9524 40.2412L15.8071 40.7384L17.1901 37.7549L16.0868 36.8069L13.0721 39.0757ZM15.7294 39.0447L15.1855 38.5938L16.1179 38.019L15.7294 39.0447ZM32.7764 25.3697C33.3513 25.8048 34.0351 26.0845 34.8744 26.0068C34.8744 26.0068 35.0297 26.0068 35.2783 26.271C35.356 26.3642 35.558 26.5196 35.791 26.5041C35.791 26.5041 35.9001 23.4583 35.2317 21.1584C34.2993 17.9106 31.7507 17.9261 31.7507 17.9261C31.7507 17.9261 33.2891 18.7342 33.74 20.0085C33.74 20.0085 31.9683 20.5368 31.5643 22.1374C31.1604 23.5981 32.1081 24.8724 32.7764 25.3697ZM32.8075 22.0442C33.3826 21.0341 34.3614 21.3604 34.3614 21.3604C34.3614 21.3604 34.6255 22.0753 34.7812 23.6914C34.7812 23.6914 33.6778 23.365 32.7453 24.0643C32.7609 24.0799 32.2171 23.0698 32.8075 22.0442Z" fill="black"/>
<path d="M48.8006 19.604C47.1845 18.9979 46.1899 20.4742 45.6148 21.3134C45.0555 22.1525 43.7968 23.6132 42.0406 22.9295C40.176 22.1991 40.2226 20.3965 40.5644 19.4331C40.5644 19.4331 35.7626 15.284 29.4224 16.9622C23.8437 18.4541 21.2952 22.8052 21.2952 22.8052C21.2952 22.8052 25.522 21.3444 27.6354 23.6598C27.6354 23.6598 22.1188 21.7485 18.6379 25.3537L18.6224 25.3692V25.3537C14.753 29.3629 17.488 33.9316 18.4825 34.3356C18.4825 34.3356 18.4825 34.3356 18.4825 34.3201C18.4981 34.3201 18.4981 34.3356 18.5136 34.3356C18.5136 34.3356 17.5812 31.6162 19.0731 29.4873C20.5959 27.3117 23.5329 27.5914 24.4809 28.5704C24.4809 28.5704 19.8966 27.4826 19.1818 31.3986C19.4926 31.352 19.7723 31.3209 20.021 31.3209C20.6581 31.3209 21.2331 31.5696 21.7148 32.0513C22.5695 32.906 22.3053 34.1802 21.6837 34.9883L21.0777 35.7808C20.9844 36.2781 20.7824 36.7754 20.4406 37.2415C20.3939 37.3036 20.3318 37.3658 20.2696 37.4279C20.7358 37.9409 22.5229 39.8677 23.2377 40.3651C23.2377 40.3651 27.2003 39.4637 33.3386 41.6394C36.8348 42.8826 39.1658 43.5195 40.8596 43.7526C42.507 43.9393 44.0298 43.4263 44.3871 43.0535C44.4959 42.9447 44.6202 42.7117 44.527 42.556C44.4338 42.4007 44.2629 42.3696 44.1696 42.3696C44.0764 42.3851 43.9366 42.4007 43.5171 42.5871L42.5536 42.9913C42.4759 42.6651 42.2118 41.7015 42.507 40.6759C41.3726 39.153 39.0105 36.6821 34.9236 35.3613C34.9236 35.3613 36.1357 34.7397 38.591 36.3403C40.5644 37.6302 43.8745 37.8477 45.7857 36.5423C46.2521 36.2315 46.5317 35.8275 46.7181 35.3613C46.7181 35.3613 46.2676 35.6099 45.7546 35.6254C45.1642 35.641 44.6357 35.3302 44.325 34.8329C44.092 34.4755 43.9832 34.1492 43.9366 33.6985C43.9366 33.6519 43.9366 33.6053 43.9211 33.5431C43.2683 33.2945 42.2584 32.6574 41.9629 31.0412C41.5279 28.6015 43.1284 27.0009 43.8745 26.2861C44.7137 25.478 45.8168 25.1827 46.3764 22.6342C46.9046 20.21 49.6706 20.9715 49.8728 21.4532C49.9039 21.4377 50.1836 20.1168 48.8006 19.604ZM31.5359 22.1214C31.9553 20.5209 33.7115 19.9925 33.7115 19.9925C33.2762 18.7182 31.7223 17.9102 31.7223 17.9102C31.7223 17.9102 34.2708 17.8946 35.2033 21.1424C35.8716 23.4423 35.7626 26.4881 35.7626 26.4881C35.5295 26.5036 35.3431 26.3482 35.2499 26.255C35.0168 25.9908 34.8459 25.9908 34.8459 25.9908C34.0067 26.0685 33.3228 25.7888 32.748 25.3537C32.111 24.872 31.163 23.5977 31.5359 22.1214ZM35.5606 32.6729C34.0688 31.7405 33.3697 31.8648 32.5926 31.9736C31.8155 32.0824 31.4271 32.0358 30.7588 31.9581C30.7588 31.9581 32.981 31.0257 34.675 31.352C36.4309 31.6939 36.897 32.129 37.845 33.108C37.8294 33.0925 37.0368 33.6053 35.5606 32.6729ZM38.5755 32.7817C38.1868 32.6729 38.0936 32.3621 37.9227 32.0047C37.7518 31.6473 37.41 31.3676 36.2911 30.7149C35.1722 30.0622 34.1776 29.969 32.9499 30.171C31.7534 30.373 30.7432 31.2743 29.2826 31.3365C27.3713 31.4297 26.1436 29.7204 27.3713 28.1974C28.3658 26.9543 30.7432 26.3638 33.8047 27.234C36.8659 28.1042 37.1614 30.1399 37.1614 30.1399C38.7308 31.3676 38.5755 32.7817 38.5755 32.7817ZM43.7346 24.9341C43.175 24.7942 43.1284 24.7166 42.8799 24.6855C42.8799 24.6855 42.709 24.9807 42.5536 25.5402C42.3827 26.0996 42.1807 27.0164 41.2017 27.5603C40.5178 27.9333 39.5387 28.1198 38.6065 27.8401C37.6896 27.5603 37.3634 27.1563 37.3634 27.1563C37.3634 27.1563 37.1614 27.2029 36.9281 27.1563C36.695 27.1097 36.6018 27.0941 36.5397 27.0941C36.5397 27.0941 38.6065 25.1206 39.9429 24.5456C41.2172 24.0017 43.0508 23.5822 44.3561 24.872C44.3561 24.8409 44.2007 25.0584 43.7346 24.9341ZM15.7631 30.2332C15.3901 30.8081 15.0327 31.3986 14.6598 32.0202C14.8307 32.1912 15.0016 32.3621 15.1726 32.533C15.2814 32.3621 15.4368 32.2067 15.6232 32.0979C15.6699 32.0668 15.8097 32.0047 16.0273 31.927C15.9962 31.7871 15.9496 31.6628 15.9185 31.523C15.8253 31.0878 15.7786 30.6527 15.7631 30.2332ZM9.43843 41.6394C8.08646 43.1156 6.23726 43.9859 4.51234 42.4162C4.51234 42.4162 4.38802 45.5243 7.65136 46.1147C10.6661 46.6742 13.0903 44.0947 15.0638 42.8204L10.2776 40.5982C10.0134 40.9555 9.7337 41.2973 9.43843 41.6394Z" fill="#006548"/>
<path d="M45.5507 29.8595C45.5507 29.8595 45.3332 30.248 45.6594 30.5743C45.6594 30.5743 46.2035 30.3723 47.058 30.3101C47.058 30.3101 46.6385 29.3933 45.5507 29.8595ZM46.5453 31.2114C45.5973 31.3513 44.6651 32.3614 44.8205 33.5579C44.8671 33.9153 44.9448 34.1018 45.0846 34.3505C45.4419 34.9099 46.1724 34.7856 46.5142 34.4126C46.9648 33.8998 47.6176 33.6822 47.6642 34.8011C47.6953 35.5315 47.1046 36.3862 47.1046 36.3862C47.1046 36.3862 50.1195 35.2984 49.2492 32.7809C48.7365 31.3358 47.5088 31.056 46.5453 31.2114ZM47.4156 39.7737C46.1724 38.8571 44.4473 39.3076 43.7948 40.0536C43.142 40.7994 43.1886 41.7629 43.1886 41.7629C44.2454 41.3124 44.7273 41.4522 45.0535 41.6697C45.4419 41.9183 45.7837 42.7886 45.0691 43.5809C44.3541 44.3735 41.961 44.6377 41.961 44.6377C44.09 45.4614 46.8405 44.7309 47.8195 43.3945C48.6588 42.3067 48.5656 40.6129 47.4156 39.7737ZM21.0135 34.4126C21.1379 34.2261 21.7439 33.2937 21.1068 32.6566C20.4697 32.0195 19.7704 32.1593 19.3508 32.3303C19.4751 32.408 19.615 32.5012 19.7393 32.5945C20.4075 33.1073 20.8271 33.7289 21.0135 34.4126ZM29.4981 28.2278C28.3483 28.3366 28.426 29.1446 28.426 29.1446C28.6902 29.0514 28.83 29.067 29.1408 28.9271C29.6071 28.7251 29.4981 28.2278 29.4981 28.2278ZM34.4242 28.4143C34.1912 28.4143 34.129 28.6318 34.129 28.6318C34.129 28.6318 34.2688 28.7095 34.5019 28.8339C34.7352 28.9582 35.0304 28.9582 35.0304 28.9582C34.9683 28.6784 34.6575 28.4143 34.4242 28.4143ZM31.8602 29.098C31.4096 29.3467 31.565 29.875 31.565 29.875C31.565 29.875 31.7359 29.8129 32.1867 29.7662C32.6528 29.7196 32.9169 29.6108 33.1189 29.5021C33.3211 29.3777 33.3833 29.1291 33.3833 29.1291C32.948 28.9271 32.311 28.8494 31.8602 29.098ZM34.7974 23.7057C34.642 22.0896 34.3776 21.3748 34.3776 21.3748C34.3776 21.3748 33.3988 21.0329 32.8237 22.0585C32.2333 23.0842 32.7616 24.0942 32.7616 24.0942C33.694 23.3794 34.7974 23.7057 34.7974 23.7057ZM34.2067 29.2068C33.9581 29.2379 33.9581 29.3933 33.9581 29.3933C34.0824 29.4865 34.2222 29.471 34.2844 29.471C34.331 29.471 34.533 29.471 34.533 29.471C34.5954 29.3156 34.4397 29.1757 34.2067 29.2068ZM38.1693 27.0002C38.2159 27.0002 38.278 27.0157 38.4182 27.0623C38.558 27.1089 38.7444 27.0779 38.7444 27.0779C39.5523 25.4307 41.324 26.2698 41.324 26.2698C41.8056 25.5705 41.4483 24.9334 41.4483 24.9334C38.7133 25.6482 38.1693 27.0002 38.1693 27.0002ZM32.6062 27.8859C32.0311 27.9636 32.0624 28.5386 32.0624 28.5386C32.2333 28.523 32.4664 28.5852 32.5596 28.6008C32.6528 28.6163 33.1655 28.7406 33.461 28.6318C33.7406 28.523 33.7095 28.2433 33.7095 28.2433C33.6629 28.1656 33.181 27.8082 32.6062 27.8859ZM29.747 29.2223C29.5761 29.5487 29.3272 30.3723 29.3272 30.3723C29.778 30.5277 30.3529 30.4811 30.8192 30.0615C31.2698 29.6264 31.1455 29.0514 31.1455 29.0514C30.5393 28.9737 29.747 29.2223 29.747 29.2223ZM30.4927 27.8393C29.747 27.9947 29.9334 28.6474 29.9334 28.6474C30.0111 28.6318 30.2752 28.6163 30.4306 28.6163C30.5859 28.6163 31.4096 28.5541 31.4096 28.5541C31.565 28.321 31.6582 27.9015 31.6582 27.9015C31.6582 27.9015 31.13 27.715 30.4927 27.8393ZM28.1929 29.875C28.3638 30.2635 28.8456 30.2014 28.8456 30.2014C28.9854 29.9061 29.0786 29.3933 29.0786 29.3933C29.032 29.3933 28.6436 29.4399 28.426 29.5642C28.2085 29.6885 28.1929 29.875 28.1929 29.875ZM15.8544 33.1694C15.8544 33.185 15.8544 33.2005 15.8544 33.2161C15.9476 33.3093 16.0409 33.4025 16.1496 33.5113C16.1962 33.5579 16.2273 33.589 16.2584 33.6201C16.3206 33.6201 16.3983 33.6045 16.4604 33.5734C16.476 33.5734 16.5381 33.5424 16.6314 33.4958C16.6469 33.4958 16.6469 33.4958 16.6624 33.4802C16.5381 33.2471 16.4138 32.9985 16.3206 32.7343C16.1807 32.7809 16.0875 32.8431 16.0719 32.8431C15.9321 32.9208 15.8699 33.0451 15.8544 33.1694ZM2.28821 33.3248C3.22059 30.7142 5.52046 28.0724 7.54062 27.311C7.92914 27.1555 8.30209 27.0779 8.64395 27.0779C8.93922 27.0779 9.18786 27.1245 9.42093 27.2022C9.26554 26.9225 9.03244 26.7049 8.65948 26.6272C7.10552 26.3164 5.52046 27.2333 3.48476 29.6419C2.28821 31.056 1.01396 33.4802 1.32475 35.2207C1.46461 35.9977 1.91526 36.3395 2.33483 36.4949C2.30375 36.4483 2.27267 36.4017 2.24159 36.3395C1.8531 35.5315 1.86864 34.5214 2.28821 33.3248ZM19.3819 35.6247C19.3042 35.8889 19.1643 36.122 19.0711 36.2618C19.04 36.2929 19.0245 36.3395 19.0089 36.3706C19.1799 36.5415 19.3508 36.7125 19.5218 36.8834C19.5994 36.8523 19.6771 36.8057 19.7393 36.728C20.594 35.5315 20.392 34.1795 19.2109 33.2782C19.1954 33.2627 19.1643 33.2471 19.1488 33.2316C19.1643 33.3248 19.1799 33.4181 19.1954 33.4958C19.1954 33.5268 19.1954 33.5579 19.2109 33.589C19.2265 33.6356 19.242 33.6978 19.2576 33.7444C19.2731 33.791 19.2731 33.8376 19.2887 33.8687C19.413 34.4126 19.444 34.8166 19.444 35.0964C19.4596 35.2518 19.444 35.3916 19.413 35.5315C19.3974 35.5781 19.3819 35.6092 19.3819 35.6247ZM24.2303 42.8352C22.4898 41.079 10.8506 29.4399 10.3999 29.0203C9.7162 28.3832 9.25 27.5907 7.83589 28.119C6.20422 28.7406 3.99757 31.0716 3.09627 33.6201C2.19497 36.1531 3.78004 36.6348 3.78004 36.6348L22.3966 45.2749C22.5054 44.7775 22.7385 44.2648 23.0803 43.8298C23.4378 43.41 23.8262 43.0682 24.2303 42.8352ZM5.64478 34.5214L7.82036 31.4756L7.18323 30.9317L8.03789 29.8284L10.3223 31.9418L9.49864 32.8431L8.90812 32.3769L6.70149 35.2518L5.64478 34.5214ZM8.98583 36.8057C7.92914 36.0443 8.48856 35.0497 8.79934 34.6302C9.11015 34.2106 10.7107 32.2526 10.7107 32.2526L11.4877 32.9519C11.4877 32.9519 9.9182 35.0497 9.77834 35.2362C9.59188 35.4849 9.63849 35.9977 10.0425 35.7956C10.5398 35.547 12.1559 33.5113 12.1559 33.5113L12.9484 34.2261C12.9484 34.2261 11.1925 36.3395 11.0681 36.4794C10.9594 36.6503 10.027 37.5517 8.98583 36.8057ZM11.1614 37.9712L13.5856 34.7078L14.518 35.4071L12.7464 37.6916L13.368 38.1887L12.8708 38.9658L11.1614 37.9712ZM14.9375 40.2245L15.0618 39.7271L14.4869 39.2921L13.8808 39.6649L13.0572 39.059L16.0719 36.7902L17.1753 37.7382L15.7922 40.7217L14.9375 40.2245ZM17.5327 41.8406L17.4705 40.6906L16.8645 41.359L16.0409 40.8926L18.0144 38.4218L18.636 38.9037L18.7292 39.7737L19.2265 39.4785L19.8791 40.0536L18.1387 42.1824L17.5327 41.8406ZM21.2311 41.9493L20.6095 41.5299L20.4386 41.7474L20.7805 41.9959L20.3764 42.462L20.0346 42.2445L19.8636 42.431L20.4075 42.8352L20.019 43.3013L18.7914 42.5245L20.392 40.4886L21.6351 41.4211L21.2311 41.9493ZM15.1862 38.5927L15.7301 39.0435L16.1186 38.0178L15.1862 38.5927ZM7.22984 39.5407C7.22984 39.5407 6.93459 38.7949 5.95559 38.9347C4.83672 39.1056 4.23067 40.7372 5.02319 41.6386C5.70695 42.431 6.76364 42.6332 7.80482 41.9027C7.80482 41.9027 6.70149 41.6386 6.4684 40.8771C6.29747 40.3488 6.42179 39.6494 7.22984 39.5407ZM26.0484 43.5343C25.489 43.0993 24.4789 43.4722 23.8107 44.358C23.127 45.2439 23.0337 46.3006 23.5931 46.7356C24.1526 47.1706 25.1626 46.7978 25.8309 45.9119C26.4991 45.0264 26.6079 43.9696 26.0484 43.5343ZM25.6599 44.3114C25.6755 44.5289 25.6133 44.9639 25.2248 45.4614C24.9451 45.8342 24.6032 46.0673 24.3391 46.145C24.2769 46.3628 24.2924 46.6269 24.2924 46.6269C24.2303 46.5803 24.106 46.3938 24.0594 46.1294C24.0127 45.9741 24.0282 45.4769 24.4789 44.9018C24.6654 44.6532 24.8829 44.4668 25.085 44.358C25.3491 44.156 25.7221 44.0318 25.9863 44.0318C25.9707 44.0007 25.8153 44.1094 25.6599 44.3114ZM39.3659 9.56462C44.3696 9.56462 48.6743 11.3051 51.5025 14.4596C56.4597 20.0073 53.2117 23.5037 53.0719 23.6436C52.5903 24.1408 51.9064 24.4206 51.1917 24.4206C50.9118 24.4206 50.6322 24.3739 50.3991 24.2963C50.7564 23.7524 51.3316 22.5869 51.1141 21.0485C50.9276 19.7276 50.2904 18.8884 49.2025 18.4844C48.8141 18.3445 48.4257 18.2669 48.0526 18.2669C46.219 18.2669 45.1778 19.8053 44.6185 20.6444C44.292 21.1106 43.655 21.9187 42.94 21.9187C42.7847 21.9187 42.6449 21.8876 42.474 21.8254C41.2618 21.3592 41.5726 20.1938 41.6969 19.8364L41.8988 19.2769L41.9765 19.0594L41.8056 18.9195L41.3551 18.531C41.1997 18.4067 37.6411 15.3765 32.4974 15.3765C31.363 15.3765 30.2286 15.5319 29.1252 15.8271C26.1727 16.6196 23.9972 18.1425 22.5675 19.4945C24.0438 16.9771 26.5768 13.636 30.2597 11.7246C32.9014 10.3261 36.1338 9.56462 39.3659 9.56462ZM39.3659 9.23828C36.0716 9.23828 32.7771 10.0153 30.0888 11.4138C24.9295 14.0867 21.9926 19.5566 21.0291 21.639C22.0547 20.2559 24.6809 17.3189 29.1874 16.1068C30.2597 15.8116 31.3785 15.6717 32.4819 15.6717C37.5012 15.6717 40.9822 18.6243 41.122 18.7486L41.5726 19.1371L41.3706 19.6965C40.7644 21.3903 42.0697 21.9964 42.3341 22.0896C42.5361 22.1673 42.7225 22.2139 42.9245 22.2139C43.7482 22.2139 44.4473 21.4525 44.8826 20.7998C45.4109 20.0228 46.3899 18.5621 48.037 18.5621C48.3788 18.5621 48.7365 18.6243 49.0783 18.7486C50.337 19.2148 50.6632 20.2559 50.7875 21.064C51.083 23.0686 49.902 24.3895 49.902 24.3895C50.2593 24.607 50.7098 24.7158 51.1917 24.7158C51.9219 24.7158 52.7301 24.4517 53.305 23.8456C54.2529 22.8511 56.2422 19.2459 51.7355 14.211C48.6277 10.7612 43.9812 9.23828 39.3659 9.23828Z" fill="white"/>
<path d="M50.5393 46.1154C50.3839 46.2708 50.1975 46.3488 49.9644 46.3488C49.7311 46.3488 49.5447 46.2708 49.3893 46.1154C49.2339 45.9601 49.1562 45.7736 49.1562 45.5406C49.1562 45.3075 49.2339 45.1056 49.4048 44.9499C49.5602 44.8101 49.7466 44.7324 49.9644 44.7324C50.1819 44.7324 50.3839 44.8101 50.5393 44.9655C50.6946 45.1211 50.7723 45.3075 50.7723 45.5406C50.7878 45.7581 50.7102 45.9445 50.5393 46.1154ZM49.498 45.0587C49.3738 45.1833 49.3116 45.3542 49.3116 45.5251C49.3116 45.7115 49.3738 45.8669 49.5136 46.0067C49.6379 46.131 49.8088 46.2086 49.98 46.2086C50.1664 46.2086 50.3218 46.1465 50.446 46.0067C50.5703 45.8669 50.648 45.7115 50.648 45.5251C50.648 45.3386 50.5859 45.1833 50.446 45.0587C50.3218 44.9189 50.1509 44.8567 49.98 44.8567C49.7932 44.8567 49.6223 44.9189 49.498 45.0587ZM49.6223 45.9756V45.0745C49.6845 45.0745 49.7622 45.0745 49.8709 45.0745C49.98 45.0745 50.0421 45.0745 50.0576 45.0745C50.1353 45.0745 50.1819 45.09 50.2285 45.1211C50.3062 45.1677 50.3528 45.2299 50.3528 45.3386C50.3528 45.4163 50.3373 45.4629 50.2907 45.5095C50.2441 45.5406 50.1975 45.5561 50.1353 45.5717C50.1975 45.5872 50.2285 45.6027 50.2596 45.6183C50.3062 45.6649 50.3373 45.727 50.3373 45.8202V45.8979C50.3373 45.9135 50.3373 45.9135 50.3373 45.929C50.3373 45.9445 50.3373 45.9445 50.3373 45.9601L50.3528 45.9911H50.1353C50.1353 45.9601 50.1198 45.9135 50.1198 45.8668C50.1198 45.8202 50.1198 45.7736 50.1042 45.7581C50.0887 45.727 50.0732 45.7115 50.0421 45.696C50.0266 45.696 49.9955 45.6804 49.9644 45.6804H49.9175H49.8709V45.9911H49.6223V45.9756ZM50.0421 45.2609C50.011 45.2454 49.9644 45.2454 49.902 45.2454H49.8398V45.5095H49.9333C49.9955 45.5095 50.0266 45.494 50.0576 45.4784C50.0887 45.4629 50.1042 45.4163 50.1042 45.3697C50.1198 45.3075 50.0887 45.2765 50.0421 45.2609Z" fill="#3A8DDE"/>
</svg>
